<mxfile host="app.diagrams.net" agent="Mozilla/5.0 (Windows NT 10.0; Win64; x64) AppleWebKit/537.36 (KHTML, like Gecko) Chrome/127.0.0.0 Safari/537.36 Avast/127.0.0.0" version="24.7.13">
  <diagram name="Página-1" id="M3oxsOGijg0PNet3tMcv">
    <mxGraphModel dx="3341" dy="1240" grid="1" gridSize="10" guides="1" tooltips="1" connect="1" arrows="1" fold="1" page="1" pageScale="1" pageWidth="827" pageHeight="1169" math="0" shadow="0">
      <root>
        <mxCell id="0" />
        <mxCell id="1" parent="0" />
        <mxCell id="YOHwVALVeGbEHIcQHzVy-4" value="" style="edgeStyle=orthogonalEdgeStyle;rounded=0;orthogonalLoop=1;jettySize=auto;html=1;" edge="1" parent="1" source="YOHwVALVeGbEHIcQHzVy-1" target="YOHwVALVeGbEHIcQHzVy-3">
          <mxGeometry relative="1" as="geometry" />
        </mxCell>
        <mxCell id="YOHwVALVeGbEHIcQHzVy-1" value="CALCULADORA&lt;div&gt;RPN&lt;/div&gt;" style="ellipse;whiteSpace=wrap;html=1;" vertex="1" parent="1">
          <mxGeometry x="370" y="50" width="120" height="80" as="geometry" />
        </mxCell>
        <mxCell id="YOHwVALVeGbEHIcQHzVy-8" value="" style="edgeStyle=orthogonalEdgeStyle;rounded=0;orthogonalLoop=1;jettySize=auto;html=1;" edge="1" parent="1" source="YOHwVALVeGbEHIcQHzVy-3" target="YOHwVALVeGbEHIcQHzVy-7">
          <mxGeometry relative="1" as="geometry" />
        </mxCell>
        <mxCell id="YOHwVALVeGbEHIcQHzVy-3" value="&lt;div&gt;float *p; // Aponta para região de memória livre&lt;/div&gt;&lt;div&gt;float *tos; // Ponteiro para o topo da pilha&lt;/div&gt;&lt;div&gt;float *bos; // Ponteiro para a base da pilha&lt;/div&gt;" style="whiteSpace=wrap;html=1;align=left;" vertex="1" parent="1">
          <mxGeometry x="290" y="160" width="280" height="100" as="geometry" />
        </mxCell>
        <mxCell id="YOHwVALVeGbEHIcQHzVy-10" value="" style="edgeStyle=orthogonalEdgeStyle;rounded=0;orthogonalLoop=1;jettySize=auto;html=1;" edge="1" parent="1" source="YOHwVALVeGbEHIcQHzVy-7" target="YOHwVALVeGbEHIcQHzVy-9">
          <mxGeometry relative="1" as="geometry" />
        </mxCell>
        <mxCell id="YOHwVALVeGbEHIcQHzVy-7" value="&lt;div style=&quot;text-align: center;&quot;&gt;&lt;span style=&quot;background-color: initial;&quot;&gt;DEFININDO FUNÇÕES DE EMPILHAR E DESEMPILHAR:&lt;/span&gt;&lt;/div&gt;&lt;div&gt;&lt;div&gt;void push(float i);&lt;/div&gt;&lt;div&gt;float pop(void);&lt;/div&gt;&lt;/div&gt;" style="whiteSpace=wrap;html=1;align=left;" vertex="1" parent="1">
          <mxGeometry x="290" y="300" width="280" height="100" as="geometry" />
        </mxCell>
        <mxCell id="YOHwVALVeGbEHIcQHzVy-12" value="" style="edgeStyle=orthogonalEdgeStyle;rounded=0;orthogonalLoop=1;jettySize=auto;html=1;" edge="1" parent="1" source="YOHwVALVeGbEHIcQHzVy-9" target="YOHwVALVeGbEHIcQHzVy-11">
          <mxGeometry relative="1" as="geometry" />
        </mxCell>
        <mxCell id="YOHwVALVeGbEHIcQHzVy-9" value="CRIAÇÃO DA FUNÇÃO EMPILHAR:&lt;div&gt;&lt;br&gt;&lt;div&gt;&lt;div style=&quot;text-align: left;&quot;&gt;void push(float i) {&lt;/div&gt;&lt;div style=&quot;text-align: left;&quot;&gt;&amp;nbsp; &amp;nbsp; if (p &amp;gt; bos) {&lt;/div&gt;&lt;div style=&quot;text-align: left;&quot;&gt;&amp;nbsp; &amp;nbsp; &amp;nbsp; &amp;nbsp; printf(&quot;Pilha Cheia\n&quot;);&lt;/div&gt;&lt;div style=&quot;text-align: left;&quot;&gt;&amp;nbsp; &amp;nbsp; &amp;nbsp; &amp;nbsp; return;&lt;/div&gt;&lt;div style=&quot;text-align: left;&quot;&gt;&amp;nbsp; &amp;nbsp; }&lt;/div&gt;&lt;div style=&quot;text-align: left;&quot;&gt;&amp;nbsp; &amp;nbsp; *p = i;&lt;/div&gt;&lt;div style=&quot;text-align: left;&quot;&gt;&amp;nbsp; &amp;nbsp; p++;&lt;/div&gt;&lt;div style=&quot;text-align: left;&quot;&gt;}&lt;/div&gt;&lt;/div&gt;&lt;/div&gt;" style="whiteSpace=wrap;html=1;align=center;" vertex="1" parent="1">
          <mxGeometry x="290" y="430" width="280" height="170" as="geometry" />
        </mxCell>
        <mxCell id="YOHwVALVeGbEHIcQHzVy-14" value="" style="edgeStyle=orthogonalEdgeStyle;rounded=0;orthogonalLoop=1;jettySize=auto;html=1;" edge="1" parent="1" source="YOHwVALVeGbEHIcQHzVy-11" target="YOHwVALVeGbEHIcQHzVy-13">
          <mxGeometry relative="1" as="geometry" />
        </mxCell>
        <mxCell id="YOHwVALVeGbEHIcQHzVy-11" value="CRIAÇÃO DA FUNÇÃO DESEMPILHAR:&lt;div&gt;&lt;br&gt;&lt;/div&gt;&lt;div&gt;&lt;div style=&quot;text-align: left;&quot;&gt;float pop(void) {&lt;/div&gt;&lt;div style=&quot;text-align: left;&quot;&gt;&amp;nbsp; &amp;nbsp; p--;&lt;/div&gt;&lt;div style=&quot;text-align: left;&quot;&gt;&amp;nbsp; &amp;nbsp; if (p &amp;lt; tos) {&lt;/div&gt;&lt;div style=&quot;text-align: left;&quot;&gt;&amp;nbsp; &amp;nbsp; &amp;nbsp; &amp;nbsp; printf(&quot;Pilha Vazia\n&quot;);&lt;/div&gt;&lt;div style=&quot;text-align: left;&quot;&gt;&amp;nbsp; &amp;nbsp; &amp;nbsp; &amp;nbsp; return 0.0;&lt;/div&gt;&lt;div style=&quot;text-align: left;&quot;&gt;&amp;nbsp; &amp;nbsp; }&lt;/div&gt;&lt;div style=&quot;text-align: left;&quot;&gt;&amp;nbsp; &amp;nbsp; return *p;&lt;/div&gt;&lt;div style=&quot;text-align: left;&quot;&gt;}&lt;/div&gt;&lt;/div&gt;" style="whiteSpace=wrap;html=1;" vertex="1" parent="1">
          <mxGeometry x="290" y="630" width="280" height="160" as="geometry" />
        </mxCell>
        <mxCell id="YOHwVALVeGbEHIcQHzVy-17" value="" style="edgeStyle=orthogonalEdgeStyle;rounded=0;orthogonalLoop=1;jettySize=auto;html=1;" edge="1" parent="1" source="YOHwVALVeGbEHIcQHzVy-13" target="YOHwVALVeGbEHIcQHzVy-16">
          <mxGeometry relative="1" as="geometry" />
        </mxCell>
        <mxCell id="YOHwVALVeGbEHIcQHzVy-13" value="DEFININDO VARIÁVEIS PARA OS CÁLCULOS:&lt;div&gt;&lt;br&gt;&lt;/div&gt;&lt;div&gt;&lt;div style=&quot;text-align: left;&quot;&gt;&amp;nbsp;float a, b;&lt;/div&gt;&lt;div style=&quot;text-align: left;&quot;&gt;&amp;nbsp;char s[256]; // Buffer maior para suportar linhas mais longas&lt;/div&gt;&lt;div&gt;&lt;br&gt;&lt;/div&gt;&lt;div&gt;&lt;br&gt;&lt;/div&gt;&lt;/div&gt;" style="whiteSpace=wrap;html=1;" vertex="1" parent="1">
          <mxGeometry x="255" y="820" width="350" height="100" as="geometry" />
        </mxCell>
        <mxCell id="YOHwVALVeGbEHIcQHzVy-20" value="" style="edgeStyle=orthogonalEdgeStyle;rounded=0;orthogonalLoop=1;jettySize=auto;html=1;" edge="1" parent="1" source="YOHwVALVeGbEHIcQHzVy-16" target="YOHwVALVeGbEHIcQHzVy-19">
          <mxGeometry relative="1" as="geometry" />
        </mxCell>
        <mxCell id="YOHwVALVeGbEHIcQHzVy-16" value="ALOCANDO MEMÓRIA PARA A PILHA:&amp;nbsp;&lt;div&gt;&lt;br&gt;&lt;/div&gt;&lt;div&gt;p = (float *) malloc(MAX * sizeof(float)); // Aloca memória para a pilha&lt;br&gt;&lt;/div&gt;" style="whiteSpace=wrap;html=1;" vertex="1" parent="1">
          <mxGeometry x="235" y="950" width="390" height="60" as="geometry" />
        </mxCell>
        <mxCell id="YOHwVALVeGbEHIcQHzVy-31" style="edgeStyle=orthogonalEdgeStyle;rounded=0;orthogonalLoop=1;jettySize=auto;html=1;exitX=1;exitY=0.5;exitDx=0;exitDy=0;entryX=0.5;entryY=0;entryDx=0;entryDy=0;" edge="1" parent="1" source="YOHwVALVeGbEHIcQHzVy-19" target="YOHwVALVeGbEHIcQHzVy-29">
          <mxGeometry relative="1" as="geometry" />
        </mxCell>
        <mxCell id="YOHwVALVeGbEHIcQHzVy-19" value="CONSEGUIU ALOCAR&lt;div&gt;MEMÓRIA PARA A&lt;/div&gt;&lt;div&gt;PILHA&lt;/div&gt;" style="rhombus;whiteSpace=wrap;html=1;" vertex="1" parent="1">
          <mxGeometry x="340" y="1050" width="170" height="170" as="geometry" />
        </mxCell>
        <mxCell id="YOHwVALVeGbEHIcQHzVy-23" value="VERDADEIRO" style="text;html=1;align=center;verticalAlign=middle;resizable=0;points=[];autosize=1;strokeColor=none;fillColor=none;" vertex="1" parent="1">
          <mxGeometry x="510" y="1100" width="100" height="30" as="geometry" />
        </mxCell>
        <mxCell id="YOHwVALVeGbEHIcQHzVy-24" value="EXIBIR NO CONSOLE:&lt;div&gt;&lt;br&gt;&lt;/div&gt;&lt;div&gt;printf(&quot;ERRO DE ALOCAÇÃO DE MEMÓRIA\n&quot;);&lt;br&gt;&lt;/div&gt;" style="strokeWidth=2;html=1;shape=mxgraph.flowchart.display;whiteSpace=wrap;" vertex="1" parent="1">
          <mxGeometry x="70" y="1081.25" width="230" height="107.5" as="geometry" />
        </mxCell>
        <mxCell id="YOHwVALVeGbEHIcQHzVy-25" style="edgeStyle=orthogonalEdgeStyle;rounded=0;orthogonalLoop=1;jettySize=auto;html=1;exitX=0;exitY=0.5;exitDx=0;exitDy=0;entryX=1;entryY=0.5;entryDx=0;entryDy=0;entryPerimeter=0;" edge="1" parent="1" source="YOHwVALVeGbEHIcQHzVy-19" target="YOHwVALVeGbEHIcQHzVy-24">
          <mxGeometry relative="1" as="geometry" />
        </mxCell>
        <mxCell id="YOHwVALVeGbEHIcQHzVy-26" value="FALSO" style="text;html=1;align=center;verticalAlign=middle;resizable=0;points=[];autosize=1;strokeColor=none;fillColor=none;" vertex="1" parent="1">
          <mxGeometry x="290" y="1108" width="60" height="30" as="geometry" />
        </mxCell>
        <mxCell id="YOHwVALVeGbEHIcQHzVy-29" value="&lt;div&gt;tos = p;&lt;/div&gt;&lt;div&gt;&amp;nbsp; &amp;nbsp; bos = p + MAX - 1;&lt;/div&gt;" style="rounded=0;whiteSpace=wrap;html=1;align=center;" vertex="1" parent="1">
          <mxGeometry x="490" y="1200" width="140" height="70" as="geometry" />
        </mxCell>
        <mxCell id="YOHwVALVeGbEHIcQHzVy-37" style="edgeStyle=orthogonalEdgeStyle;rounded=0;orthogonalLoop=1;jettySize=auto;html=1;entryX=0.5;entryY=0;entryDx=0;entryDy=0;" edge="1" parent="1" source="YOHwVALVeGbEHIcQHzVy-33" target="YOHwVALVeGbEHIcQHzVy-36">
          <mxGeometry relative="1" as="geometry" />
        </mxCell>
        <mxCell id="YOHwVALVeGbEHIcQHzVy-33" value="&lt;div&gt;&lt;span style=&quot;background-color: initial;&quot;&gt;&amp;nbsp; &amp;nbsp; &amp;nbsp; &amp;nbsp; &amp;nbsp; &amp;nbsp; &amp;nbsp; &amp;nbsp; &amp;nbsp; &amp;nbsp;printf(&quot;Calculadora\n&quot;);&lt;/span&gt;&lt;br&gt;&lt;/div&gt;&lt;div&gt;&lt;span style=&quot;background-color: initial;&quot;&gt;&amp;nbsp; &amp;nbsp; &amp;nbsp; &amp;nbsp; &amp;nbsp; &amp;nbsp; &amp;nbsp; &amp;nbsp; &amp;nbsp; &amp;nbsp;printf(&quot;Digite os comandos&amp;nbsp; &amp;nbsp; &amp;nbsp; &amp;nbsp; &amp;nbsp; &amp;nbsp; &amp;nbsp; &amp;nbsp; &amp;nbsp; &amp;nbsp; &amp;nbsp; &amp;nbsp; &amp;nbsp; &amp;nbsp; &amp;nbsp; &amp;nbsp; &amp;nbsp; &amp;nbsp; &amp;nbsp;separados por espaço (digite&amp;nbsp; &amp;nbsp; &amp;nbsp; &amp;nbsp; &amp;nbsp; &amp;nbsp; &amp;nbsp; &amp;nbsp; &amp;nbsp; &amp;nbsp; &amp;nbsp; &amp;nbsp; &amp;nbsp; &amp;nbsp;&#39;q&#39; para sair):\n&quot;);&lt;/span&gt;&lt;br&gt;&lt;/div&gt;" style="strokeWidth=2;html=1;shape=mxgraph.flowchart.display;whiteSpace=wrap;align=left;" vertex="1" parent="1">
          <mxGeometry x="440" y="1310" width="250" height="120" as="geometry" />
        </mxCell>
        <mxCell id="YOHwVALVeGbEHIcQHzVy-35" style="edgeStyle=orthogonalEdgeStyle;rounded=0;orthogonalLoop=1;jettySize=auto;html=1;exitX=0.5;exitY=1;exitDx=0;exitDy=0;entryX=0.48;entryY=-0.011;entryDx=0;entryDy=0;entryPerimeter=0;" edge="1" parent="1" source="YOHwVALVeGbEHIcQHzVy-29" target="YOHwVALVeGbEHIcQHzVy-33">
          <mxGeometry relative="1" as="geometry" />
        </mxCell>
        <mxCell id="YOHwVALVeGbEHIcQHzVy-42" style="edgeStyle=orthogonalEdgeStyle;rounded=0;orthogonalLoop=1;jettySize=auto;html=1;exitX=0;exitY=0.5;exitDx=0;exitDy=0;" edge="1" parent="1" source="YOHwVALVeGbEHIcQHzVy-36" target="YOHwVALVeGbEHIcQHzVy-43">
          <mxGeometry relative="1" as="geometry">
            <mxPoint x="420" y="1570" as="targetPoint" />
          </mxGeometry>
        </mxCell>
        <mxCell id="YOHwVALVeGbEHIcQHzVy-36" value="PROGRAMA&amp;nbsp;&lt;div&gt;ENCERRADO?&lt;/div&gt;" style="rhombus;whiteSpace=wrap;html=1;" vertex="1" parent="1">
          <mxGeometry x="490" y="1470" width="150" height="140" as="geometry" />
        </mxCell>
        <mxCell id="YOHwVALVeGbEHIcQHzVy-40" value="VERDADEIRO" style="text;html=1;align=center;verticalAlign=middle;resizable=0;points=[];autosize=1;strokeColor=none;fillColor=none;" vertex="1" parent="1">
          <mxGeometry x="620" y="1508" width="100" height="30" as="geometry" />
        </mxCell>
        <mxCell id="YOHwVALVeGbEHIcQHzVy-41" value="FALSO" style="text;html=1;align=center;verticalAlign=middle;resizable=0;points=[];autosize=1;strokeColor=none;fillColor=none;" vertex="1" parent="1">
          <mxGeometry x="420" y="1508" width="60" height="30" as="geometry" />
        </mxCell>
        <mxCell id="YOHwVALVeGbEHIcQHzVy-45" value="" style="edgeStyle=orthogonalEdgeStyle;rounded=0;orthogonalLoop=1;jettySize=auto;html=1;" edge="1" parent="1" source="YOHwVALVeGbEHIcQHzVy-43" target="YOHwVALVeGbEHIcQHzVy-44">
          <mxGeometry relative="1" as="geometry" />
        </mxCell>
        <mxCell id="YOHwVALVeGbEHIcQHzVy-43" value="printf(&quot;: &quot;);" style="strokeWidth=2;html=1;shape=mxgraph.flowchart.display;whiteSpace=wrap;" vertex="1" parent="1">
          <mxGeometry x="355" y="1580" width="140" height="60" as="geometry" />
        </mxCell>
        <mxCell id="YOHwVALVeGbEHIcQHzVy-51" style="edgeStyle=orthogonalEdgeStyle;rounded=0;orthogonalLoop=1;jettySize=auto;html=1;exitX=1;exitY=0.5;exitDx=0;exitDy=0;entryX=0.5;entryY=0;entryDx=0;entryDy=0;" edge="1" parent="1" source="YOHwVALVeGbEHIcQHzVy-44" target="YOHwVALVeGbEHIcQHzVy-50">
          <mxGeometry relative="1" as="geometry" />
        </mxCell>
        <mxCell id="YOHwVALVeGbEHIcQHzVy-44" value="&amp;nbsp; &amp;nbsp; &amp;nbsp; &amp;nbsp; &amp;nbsp; if (fgets(s, sizeof(s), stdin) == NULL)" style="rhombus;whiteSpace=wrap;html=1;strokeWidth=2;" vertex="1" parent="1">
          <mxGeometry x="340" y="1670" width="170" height="150" as="geometry" />
        </mxCell>
        <mxCell id="YOHwVALVeGbEHIcQHzVy-46" value="&amp;nbsp; &amp;nbsp;printf(&quot;Erro na leitura da linha.\n&quot;);" style="strokeWidth=2;html=1;shape=mxgraph.flowchart.display;whiteSpace=wrap;" vertex="1" parent="1">
          <mxGeometry x="160" y="1810" width="140" height="80" as="geometry" />
        </mxCell>
        <mxCell id="YOHwVALVeGbEHIcQHzVy-47" style="edgeStyle=orthogonalEdgeStyle;rounded=0;orthogonalLoop=1;jettySize=auto;html=1;exitX=0;exitY=0.5;exitDx=0;exitDy=0;entryX=0.5;entryY=0;entryDx=0;entryDy=0;entryPerimeter=0;" edge="1" parent="1" source="YOHwVALVeGbEHIcQHzVy-44" target="YOHwVALVeGbEHIcQHzVy-46">
          <mxGeometry relative="1" as="geometry" />
        </mxCell>
        <mxCell id="YOHwVALVeGbEHIcQHzVy-48" value="Verdadeiro" style="text;html=1;align=center;verticalAlign=middle;resizable=0;points=[];autosize=1;strokeColor=none;fillColor=none;" vertex="1" parent="1">
          <mxGeometry x="260" y="1708" width="80" height="30" as="geometry" />
        </mxCell>
        <mxCell id="YOHwVALVeGbEHIcQHzVy-55" value="" style="edgeStyle=orthogonalEdgeStyle;rounded=0;orthogonalLoop=1;jettySize=auto;html=1;" edge="1" parent="1" source="YOHwVALVeGbEHIcQHzVy-50" target="YOHwVALVeGbEHIcQHzVy-54">
          <mxGeometry relative="1" as="geometry" />
        </mxCell>
        <mxCell id="YOHwVALVeGbEHIcQHzVy-50" value="s[strcspn(s, &quot;\n&quot;)] = 0;" style="rounded=0;whiteSpace=wrap;html=1;" vertex="1" parent="1">
          <mxGeometry x="500" y="1780" width="120" height="60" as="geometry" />
        </mxCell>
        <mxCell id="YOHwVALVeGbEHIcQHzVy-52" value="Falso" style="text;html=1;align=center;verticalAlign=middle;resizable=0;points=[];autosize=1;strokeColor=none;fillColor=none;" vertex="1" parent="1">
          <mxGeometry x="505" y="1718" width="50" height="30" as="geometry" />
        </mxCell>
        <mxCell id="YOHwVALVeGbEHIcQHzVy-57" value="" style="edgeStyle=orthogonalEdgeStyle;rounded=0;orthogonalLoop=1;jettySize=auto;html=1;" edge="1" parent="1" source="YOHwVALVeGbEHIcQHzVy-54" target="YOHwVALVeGbEHIcQHzVy-56">
          <mxGeometry relative="1" as="geometry" />
        </mxCell>
        <mxCell id="YOHwVALVeGbEHIcQHzVy-54" value="char *token = strtok(s, &quot; &quot;);" style="whiteSpace=wrap;html=1;rounded=0;" vertex="1" parent="1">
          <mxGeometry x="485" y="1870" width="150" height="60" as="geometry" />
        </mxCell>
        <mxCell id="YOHwVALVeGbEHIcQHzVy-61" style="edgeStyle=orthogonalEdgeStyle;rounded=0;orthogonalLoop=1;jettySize=auto;html=1;exitX=1;exitY=0.5;exitDx=0;exitDy=0;entryX=0.5;entryY=0;entryDx=0;entryDy=0;" edge="1" parent="1" source="YOHwVALVeGbEHIcQHzVy-56" target="YOHwVALVeGbEHIcQHzVy-60">
          <mxGeometry relative="1" as="geometry" />
        </mxCell>
        <mxCell id="YOHwVALVeGbEHIcQHzVy-56" value="while token != NULL" style="rhombus;whiteSpace=wrap;html=1;rounded=0;" vertex="1" parent="1">
          <mxGeometry x="485" y="1960" width="135" height="140" as="geometry" />
        </mxCell>
        <mxCell id="YOHwVALVeGbEHIcQHzVy-64" style="edgeStyle=orthogonalEdgeStyle;rounded=0;orthogonalLoop=1;jettySize=auto;html=1;exitX=1;exitY=0.5;exitDx=0;exitDy=0;entryX=0.5;entryY=0;entryDx=0;entryDy=0;" edge="1" parent="1" source="YOHwVALVeGbEHIcQHzVy-60" target="YOHwVALVeGbEHIcQHzVy-63">
          <mxGeometry relative="1" as="geometry" />
        </mxCell>
        <mxCell id="YOHwVALVeGbEHIcQHzVy-68" style="edgeStyle=orthogonalEdgeStyle;rounded=0;orthogonalLoop=1;jettySize=auto;html=1;exitX=0;exitY=0.5;exitDx=0;exitDy=0;entryX=0.5;entryY=0;entryDx=0;entryDy=0;" edge="1" parent="1" source="YOHwVALVeGbEHIcQHzVy-60" target="YOHwVALVeGbEHIcQHzVy-67">
          <mxGeometry relative="1" as="geometry">
            <Array as="points">
              <mxPoint x="390" y="2155" />
            </Array>
          </mxGeometry>
        </mxCell>
        <mxCell id="YOHwVALVeGbEHIcQHzVy-60" value="&amp;nbsp; &amp;nbsp; &amp;nbsp;if (strcmp(token, &quot;q&quot;) == 0)" style="rhombus;whiteSpace=wrap;html=1;" vertex="1" parent="1">
          <mxGeometry x="610" y="2100" width="120" height="110" as="geometry" />
        </mxCell>
        <mxCell id="YOHwVALVeGbEHIcQHzVy-62" value="Verdadeiro" style="text;html=1;align=center;verticalAlign=middle;resizable=0;points=[];autosize=1;strokeColor=none;fillColor=none;" vertex="1" parent="1">
          <mxGeometry x="620" y="1998" width="80" height="30" as="geometry" />
        </mxCell>
        <mxCell id="YOHwVALVeGbEHIcQHzVy-63" value="free(p); // Libere a memória alocada" style="rounded=0;whiteSpace=wrap;html=1;" vertex="1" parent="1">
          <mxGeometry x="707" y="2230" width="120" height="60" as="geometry" />
        </mxCell>
        <mxCell id="YOHwVALVeGbEHIcQHzVy-65" value="Verdadeiro" style="text;html=1;align=center;verticalAlign=middle;resizable=0;points=[];autosize=1;strokeColor=none;fillColor=none;" vertex="1" parent="1">
          <mxGeometry x="720" y="2128" width="80" height="30" as="geometry" />
        </mxCell>
        <mxCell id="YOHwVALVeGbEHIcQHzVy-72" style="edgeStyle=orthogonalEdgeStyle;rounded=0;orthogonalLoop=1;jettySize=auto;html=1;exitX=1;exitY=0.5;exitDx=0;exitDy=0;entryX=0.5;entryY=0;entryDx=0;entryDy=0;" edge="1" parent="1" source="YOHwVALVeGbEHIcQHzVy-67" target="YOHwVALVeGbEHIcQHzVy-70">
          <mxGeometry relative="1" as="geometry" />
        </mxCell>
        <mxCell id="YOHwVALVeGbEHIcQHzVy-67" value="&lt;div&gt;switch (token[0]) {&lt;/div&gt;&lt;div&gt;case &#39;+&#39;:&lt;/div&gt;" style="rhombus;whiteSpace=wrap;html=1;" vertex="1" parent="1">
          <mxGeometry x="320" y="2180" width="140" height="130" as="geometry" />
        </mxCell>
        <mxCell id="YOHwVALVeGbEHIcQHzVy-69" value="Falso" style="text;html=1;align=center;verticalAlign=middle;resizable=0;points=[];autosize=1;strokeColor=none;fillColor=none;" vertex="1" parent="1">
          <mxGeometry x="555" y="2128" width="50" height="30" as="geometry" />
        </mxCell>
        <mxCell id="YOHwVALVeGbEHIcQHzVy-70" value="&lt;div style=&quot;text-align: left;&quot;&gt;a = pop();&lt;/div&gt;&lt;div style=&quot;text-align: left;&quot;&gt;b = pop();&lt;/div&gt;&lt;div style=&quot;text-align: left;&quot;&gt;printf(&quot;%.2f\n&quot;, b + a);&lt;/div&gt;&lt;div style=&quot;text-align: left;&quot;&gt;push(b + a);&lt;/div&gt;&lt;div style=&quot;text-align: left;&quot;&gt;break;&lt;/div&gt;&lt;div&gt;&amp;nbsp; &amp;nbsp; &amp;nbsp; &amp;nbsp; &amp;nbsp; &amp;nbsp; &amp;nbsp; &amp;nbsp;&amp;nbsp;&lt;/div&gt;" style="whiteSpace=wrap;html=1;" vertex="1" parent="1">
          <mxGeometry x="465" y="2300" width="165" height="90" as="geometry" />
        </mxCell>
        <mxCell id="YOHwVALVeGbEHIcQHzVy-78" style="edgeStyle=orthogonalEdgeStyle;rounded=0;orthogonalLoop=1;jettySize=auto;html=1;exitX=1;exitY=0.5;exitDx=0;exitDy=0;entryX=0.5;entryY=0;entryDx=0;entryDy=0;" edge="1" parent="1" source="YOHwVALVeGbEHIcQHzVy-74" target="YOHwVALVeGbEHIcQHzVy-77">
          <mxGeometry relative="1" as="geometry" />
        </mxCell>
        <mxCell id="YOHwVALVeGbEHIcQHzVy-74" value="switch (token[0]) {&lt;div&gt;&amp;nbsp;case &#39;-&#39;:&lt;br&gt;&lt;/div&gt;" style="rhombus;whiteSpace=wrap;html=1;" vertex="1" parent="1">
          <mxGeometry x="190" y="2290" width="150" height="150" as="geometry" />
        </mxCell>
        <mxCell id="YOHwVALVeGbEHIcQHzVy-77" value="&lt;div&gt;&amp;nbsp; &amp;nbsp; &amp;nbsp; &amp;nbsp; a = pop();&lt;/div&gt;&lt;div&gt;&lt;span style=&quot;background-color: initial;&quot;&gt;&amp;nbsp; &amp;nbsp; &amp;nbsp; &amp;nbsp; b = pop();&lt;/span&gt;&lt;/div&gt;&lt;div&gt;&amp;nbsp; &amp;nbsp; &amp;nbsp; &amp;nbsp; printf(&quot;%.2f\n&quot;, b - a);&amp;nbsp; &amp;nbsp; &amp;nbsp; &amp;nbsp; &amp;nbsp; &amp;nbsp; &amp;nbsp; &amp;nbsp;&amp;nbsp;&lt;span style=&quot;background-color: initial;&quot;&gt;push(b - a);&lt;/span&gt;&lt;/div&gt;&lt;div&gt;&amp;nbsp; &amp;nbsp; &amp;nbsp; &amp;nbsp; break;&lt;/div&gt;" style="rounded=0;whiteSpace=wrap;html=1;align=left;" vertex="1" parent="1">
          <mxGeometry x="315" y="2440" width="165" height="100" as="geometry" />
        </mxCell>
        <mxCell id="YOHwVALVeGbEHIcQHzVy-87" style="edgeStyle=orthogonalEdgeStyle;rounded=0;orthogonalLoop=1;jettySize=auto;html=1;exitX=1;exitY=0.5;exitDx=0;exitDy=0;entryX=0.5;entryY=0;entryDx=0;entryDy=0;" edge="1" parent="1" source="YOHwVALVeGbEHIcQHzVy-81" target="YOHwVALVeGbEHIcQHzVy-84">
          <mxGeometry relative="1" as="geometry" />
        </mxCell>
        <mxCell id="YOHwVALVeGbEHIcQHzVy-81" value="switch (token[0]) {&lt;div&gt;&amp;nbsp;case &#39;*&#39;:&lt;br&gt;&lt;/div&gt;" style="rhombus;whiteSpace=wrap;html=1;" vertex="1" parent="1">
          <mxGeometry x="60" y="2420" width="150" height="140" as="geometry" />
        </mxCell>
        <mxCell id="YOHwVALVeGbEHIcQHzVy-84" value="&lt;div&gt;a = pop();&lt;/div&gt;&lt;div&gt;b = pop();&lt;/div&gt;&lt;div&gt;printf(&quot;%.2f\n&quot;, b * a);&lt;/div&gt;&lt;div&gt;push(b * a);&lt;/div&gt;&lt;div&gt;break;&lt;/div&gt;" style="rounded=0;whiteSpace=wrap;html=1;align=left;" vertex="1" parent="1">
          <mxGeometry x="184" y="2570" width="176" height="100" as="geometry" />
        </mxCell>
        <mxCell id="YOHwVALVeGbEHIcQHzVy-89" style="edgeStyle=orthogonalEdgeStyle;rounded=0;orthogonalLoop=1;jettySize=auto;html=1;exitX=1;exitY=0.5;exitDx=0;exitDy=0;entryX=0.5;entryY=0;entryDx=0;entryDy=0;" edge="1" parent="1" source="YOHwVALVeGbEHIcQHzVy-85" target="YOHwVALVeGbEHIcQHzVy-88">
          <mxGeometry relative="1" as="geometry" />
        </mxCell>
        <mxCell id="YOHwVALVeGbEHIcQHzVy-85" value="switch (token[0]) {&lt;div&gt;case &#39;/&#39;:&lt;br&gt;&lt;/div&gt;" style="rhombus;whiteSpace=wrap;html=1;" vertex="1" parent="1">
          <mxGeometry x="-70" y="2560" width="140" height="140" as="geometry" />
        </mxCell>
        <mxCell id="YOHwVALVeGbEHIcQHzVy-88" value="&lt;div&gt;&amp;nbsp;a = pop();&lt;/div&gt;&lt;div&gt;&amp;nbsp;b = pop();&lt;/div&gt;&lt;div&gt;&lt;br&gt;&lt;/div&gt;&lt;div style=&quot;&quot;&gt;&amp;nbsp; &amp;nbsp; &amp;nbsp; &amp;nbsp;if (a == 0) {&lt;span style=&quot;background-color: initial;&quot;&gt;&amp;nbsp; &amp;nbsp; &amp;nbsp; &amp;nbsp; &amp;nbsp; &amp;nbsp; &amp;nbsp; &amp;nbsp; &amp;nbsp; &amp;nbsp; &amp;nbsp;&lt;span style=&quot;white-space: pre;&quot;&gt;&#x9;&lt;/span&gt;&lt;span style=&quot;white-space: pre;&quot;&gt;&#x9;&lt;/span&gt;&amp;nbsp; &amp;nbsp; &amp;nbsp; &amp;nbsp; &amp;nbsp; &amp;nbsp; &amp;nbsp; &amp;nbsp; &amp;nbsp; &amp;nbsp; &amp;nbsp; &amp;nbsp; &amp;nbsp; &amp;nbsp; &amp;nbsp; &amp;nbsp; &amp;nbsp; &amp;nbsp; &amp;nbsp; &amp;nbsp; &amp;nbsp; &amp;nbsp; &amp;nbsp; &amp;nbsp; printf(&quot;Divisão por 0\n&quot;);&lt;/span&gt;&lt;span style=&quot;background-color: initial;&quot;&gt;&amp;nbsp;&lt;/span&gt;&lt;span style=&quot;background-color: initial; white-space: pre;&quot;&gt;&#x9;&lt;/span&gt;&lt;span style=&quot;background-color: initial; white-space: pre;&quot;&gt;&#x9;&lt;/span&gt;&lt;/div&gt;&lt;div style=&quot;&quot;&gt;&lt;span style=&quot;background-color: initial;&quot;&gt;push(b);&amp;nbsp;&amp;nbsp;&lt;/span&gt;&lt;/div&gt;&lt;div style=&quot;&quot;&gt;break;&lt;/div&gt;&lt;div&gt;&amp;nbsp; &amp;nbsp; &amp;nbsp; &amp;nbsp; }&lt;/div&gt;&lt;div&gt;&amp;nbsp;printf(&quot;%.2f\n&quot;, b / a);&lt;/div&gt;&lt;div&gt;&amp;nbsp;push(b / a);&lt;/div&gt;&lt;div&gt;&amp;nbsp;break;&lt;/div&gt;" style="rounded=0;whiteSpace=wrap;html=1;align=left;" vertex="1" parent="1">
          <mxGeometry x="34" y="2710" width="366" height="160" as="geometry" />
        </mxCell>
        <mxCell id="YOHwVALVeGbEHIcQHzVy-93" value="" style="endArrow=none;html=1;rounded=0;" edge="1" parent="1">
          <mxGeometry width="50" height="50" relative="1" as="geometry">
            <mxPoint x="260" y="2160" as="sourcePoint" />
            <mxPoint x="390" y="2154.92" as="targetPoint" />
          </mxGeometry>
        </mxCell>
        <mxCell id="YOHwVALVeGbEHIcQHzVy-94" value="" style="endArrow=classic;html=1;rounded=0;entryX=0.5;entryY=0;entryDx=0;entryDy=0;" edge="1" parent="1" target="YOHwVALVeGbEHIcQHzVy-74">
          <mxGeometry width="50" height="50" relative="1" as="geometry">
            <mxPoint x="260" y="2160" as="sourcePoint" />
            <mxPoint x="310" y="2190" as="targetPoint" />
          </mxGeometry>
        </mxCell>
        <mxCell id="YOHwVALVeGbEHIcQHzVy-95" value="" style="endArrow=none;html=1;rounded=0;" edge="1" parent="1">
          <mxGeometry width="50" height="50" relative="1" as="geometry">
            <mxPoint x="130" y="2160" as="sourcePoint" />
            <mxPoint x="260" y="2160" as="targetPoint" />
          </mxGeometry>
        </mxCell>
        <mxCell id="YOHwVALVeGbEHIcQHzVy-96" value="" style="endArrow=classic;html=1;rounded=0;entryX=0.5;entryY=0;entryDx=0;entryDy=0;" edge="1" parent="1" target="YOHwVALVeGbEHIcQHzVy-81">
          <mxGeometry width="50" height="50" relative="1" as="geometry">
            <mxPoint x="130" y="2160" as="sourcePoint" />
            <mxPoint x="230" y="2250" as="targetPoint" />
          </mxGeometry>
        </mxCell>
        <mxCell id="YOHwVALVeGbEHIcQHzVy-97" value="" style="endArrow=none;html=1;rounded=0;" edge="1" parent="1">
          <mxGeometry width="50" height="50" relative="1" as="geometry">
            <mxPoint y="2160" as="sourcePoint" />
            <mxPoint x="130" y="2160" as="targetPoint" />
          </mxGeometry>
        </mxCell>
        <mxCell id="YOHwVALVeGbEHIcQHzVy-98" value="" style="endArrow=classic;html=1;rounded=0;entryX=0.5;entryY=0;entryDx=0;entryDy=0;" edge="1" parent="1" target="YOHwVALVeGbEHIcQHzVy-85">
          <mxGeometry width="50" height="50" relative="1" as="geometry">
            <mxPoint y="2160" as="sourcePoint" />
            <mxPoint x="10" y="2160" as="targetPoint" />
          </mxGeometry>
        </mxCell>
        <mxCell id="YOHwVALVeGbEHIcQHzVy-103" style="edgeStyle=orthogonalEdgeStyle;rounded=0;orthogonalLoop=1;jettySize=auto;html=1;exitX=1;exitY=0.5;exitDx=0;exitDy=0;" edge="1" parent="1" source="YOHwVALVeGbEHIcQHzVy-99" target="YOHwVALVeGbEHIcQHzVy-102">
          <mxGeometry relative="1" as="geometry" />
        </mxCell>
        <mxCell id="YOHwVALVeGbEHIcQHzVy-105" style="edgeStyle=orthogonalEdgeStyle;rounded=0;orthogonalLoop=1;jettySize=auto;html=1;exitX=0;exitY=0.5;exitDx=0;exitDy=0;" edge="1" parent="1" source="YOHwVALVeGbEHIcQHzVy-99" target="YOHwVALVeGbEHIcQHzVy-104">
          <mxGeometry relative="1" as="geometry" />
        </mxCell>
        <mxCell id="YOHwVALVeGbEHIcQHzVy-99" value="switch (token[0]) {&lt;div&gt;case &#39;.&#39;:&lt;br&gt;&lt;/div&gt;" style="rhombus;whiteSpace=wrap;html=1;" vertex="1" parent="1">
          <mxGeometry x="-230" y="2700" width="150" height="140" as="geometry" />
        </mxCell>
        <mxCell id="YOHwVALVeGbEHIcQHzVy-100" value="" style="endArrow=classic;html=1;rounded=0;entryX=0.5;entryY=0;entryDx=0;entryDy=0;" edge="1" parent="1" target="YOHwVALVeGbEHIcQHzVy-99">
          <mxGeometry width="50" height="50" relative="1" as="geometry">
            <mxPoint x="-160" y="2160" as="sourcePoint" />
            <mxPoint x="50" y="2380" as="targetPoint" />
          </mxGeometry>
        </mxCell>
        <mxCell id="YOHwVALVeGbEHIcQHzVy-101" value="" style="endArrow=none;html=1;rounded=0;" edge="1" parent="1">
          <mxGeometry width="50" height="50" relative="1" as="geometry">
            <mxPoint x="-160" y="2160" as="sourcePoint" />
            <mxPoint y="2160" as="targetPoint" />
          </mxGeometry>
        </mxCell>
        <mxCell id="YOHwVALVeGbEHIcQHzVy-102" value="&lt;div&gt;&amp;nbsp;a = pop();&lt;/div&gt;&lt;div&gt;&amp;nbsp;push(a);&lt;/div&gt;&lt;div&gt;printf(&quot;Valor corrente no topo da pilha: %.2f\n&quot;, a);&lt;/div&gt;&lt;div&gt;break;&lt;/div&gt;" style="rounded=0;whiteSpace=wrap;html=1;align=left;" vertex="1" parent="1">
          <mxGeometry x="-130" y="2912" width="206" height="108" as="geometry" />
        </mxCell>
        <mxCell id="YOHwVALVeGbEHIcQHzVy-107" value="" style="edgeStyle=orthogonalEdgeStyle;rounded=0;orthogonalLoop=1;jettySize=auto;html=1;" edge="1" parent="1" source="YOHwVALVeGbEHIcQHzVy-104" target="YOHwVALVeGbEHIcQHzVy-106">
          <mxGeometry relative="1" as="geometry" />
        </mxCell>
        <mxCell id="YOHwVALVeGbEHIcQHzVy-104" value="&lt;div&gt;default:&lt;/div&gt;&lt;div&gt;&amp;nbsp; &amp;nbsp; &amp;nbsp; &amp;nbsp; &amp;nbsp; &amp;nbsp; &amp;nbsp; &amp;nbsp; &amp;nbsp; &amp;nbsp; push(atof(token));&lt;/div&gt;" style="rounded=0;whiteSpace=wrap;html=1;align=left;" vertex="1" parent="1">
          <mxGeometry x="-360" y="2830" width="140" height="70" as="geometry" />
        </mxCell>
        <mxCell id="YOHwVALVeGbEHIcQHzVy-108" style="edgeStyle=orthogonalEdgeStyle;rounded=0;orthogonalLoop=1;jettySize=auto;html=1;exitX=0.5;exitY=1;exitDx=0;exitDy=0;" edge="1" parent="1" source="YOHwVALVeGbEHIcQHzVy-106">
          <mxGeometry relative="1" as="geometry">
            <mxPoint x="-289.8421052631579" y="3070" as="targetPoint" />
          </mxGeometry>
        </mxCell>
        <mxCell id="YOHwVALVeGbEHIcQHzVy-106" value="&lt;div&gt;// Obtem o próximo token&lt;/div&gt;&lt;div&gt;&amp;nbsp; &amp;nbsp; &amp;nbsp; &amp;nbsp; &amp;nbsp; &amp;nbsp; token = strtok(NULL, &quot; &quot;);&lt;/div&gt;" style="whiteSpace=wrap;html=1;align=left;rounded=0;" vertex="1" parent="1">
          <mxGeometry x="-385" y="2950" width="190" height="70" as="geometry" />
        </mxCell>
        <mxCell id="YOHwVALVeGbEHIcQHzVy-109" value="FIM" style="ellipse;whiteSpace=wrap;html=1;" vertex="1" parent="1">
          <mxGeometry x="-372.5" y="3070" width="165" height="80" as="geometry" />
        </mxCell>
        <mxCell id="YOHwVALVeGbEHIcQHzVy-111" value="" style="endArrow=classic;html=1;rounded=0;entryX=1;entryY=0.5;entryDx=0;entryDy=0;" edge="1" parent="1" target="YOHwVALVeGbEHIcQHzVy-109">
          <mxGeometry width="50" height="50" relative="1" as="geometry">
            <mxPoint x="903.5294117647059" y="3110" as="sourcePoint" />
            <mxPoint x="190" y="3070" as="targetPoint" />
          </mxGeometry>
        </mxCell>
        <mxCell id="YOHwVALVeGbEHIcQHzVy-112" value="" style="endArrow=none;html=1;rounded=0;" edge="1" parent="1">
          <mxGeometry width="50" height="50" relative="1" as="geometry">
            <mxPoint x="890" y="1540" as="sourcePoint" />
            <mxPoint x="900" y="3110" as="targetPoint" />
          </mxGeometry>
        </mxCell>
        <mxCell id="YOHwVALVeGbEHIcQHzVy-113" value="" style="endArrow=none;html=1;rounded=0;entryX=1;entryY=0.5;entryDx=0;entryDy=0;" edge="1" parent="1" target="YOHwVALVeGbEHIcQHzVy-36">
          <mxGeometry width="50" height="50" relative="1" as="geometry">
            <mxPoint x="890" y="1540" as="sourcePoint" />
            <mxPoint x="480" y="1750" as="targetPoint" />
          </mxGeometry>
        </mxCell>
      </root>
    </mxGraphModel>
  </diagram>
</mxfile>
